# xmcd
#
# Track frame offsets:
#	150
#	17252
#	32297
#	48133
#	66160
#	85622
#	102069
#	118244
#	133145
#	150378
#	171409
#	187834
#	204238
#	220321
#	234911
#
# Disc length: 3377 seconds
#
# Revision: 0
# Processed by: cddbd v1.5.2PL0 Copyright (c) Steve Scherf et al.
# Submitted via: audiograbber 1.83.01
#
DISCID=b20d2f0f
DTITLE=JonesTM - HC200814
DYEAR=2008
DGENRE=Country
TTITLE0=Drew Davis Band - How Do I
TTITLE1=Ashley Gearing - Out The Window
TTITLE2=Kate Russell - The Man He Could Be
TTITLE3=David Nail - I'm About To Come Alive
TTITLE4=Kory Brunson Band - Good Clean Dirty Fun
TTITLE5=Mark Chesnutt - When You Love Her Like Crazy
TTITLE6=Jaheim - I've Changed
TTITLE7=One Chance - U Can't [Main Version]
TTITLE8=Calvin Richardson - Sang No More
TTITLE9=David Wells Feat. Matt Marshak - Friday Afternoon [Album Version]
TTITLE10=Melody Gardot - Worrisome Heart [Radio Edit #1]
TTITLE11=Melody Gardot - Worrisome Heart [Radio Edit #2]
TTITLE12=Stuart Steinhart - Edification [Radio Edit]
TTITLE13=Victoria White - Can't Buy Love
TTITLE14=Chris Botti - Estate
EXTD=
EXTT0=
EXTT1=
EXTT2=
EXTT3=
EXTT4=
EXTT5=
EXTT6=
EXTT7=
EXTT8=
EXTT9=
EXTT10=
EXTT11=
EXTT12=
EXTT13=
EXTT14=
PLAYORDER=
